<svg width="270" height="170" viewBox="0 0 270 170" fill="none" xmlns="http://www.w3.org/2000/svg">
<g filter="">
<g clip-path="url(#clip0_4728_13490)">
<rect x="42" y="23.25" width="186" height="128" rx="18" fill="#27282B"/>
<g opacity="0.5">
<g opacity="0.5">
<g opacity="0.5">
<g opacity="0.5">
<path opacity="0.5" d="M75.1826 0.286255L86.9358 6.9424L99.2287 18.2758L105.585 22.4734L106.724 23.4928" stroke="#4D2161" stroke-width="0.238009" stroke-linecap="round" stroke-linejoin="round" stroke-dasharray="0.95 0.95"/>
<path opacity="0.5" d="M107.143 23.9117L107.623 24.3914" stroke="#4D2161" stroke-width="0.238009" stroke-linecap="round" stroke-linejoin="round"/>
</g>
</g>
<path opacity="0.5" d="M105.944 22.6524L129.57 19.894L145.701 35.6649L142.762 38.8431" stroke="#4D2161" stroke-width="0.238009" stroke-miterlimit="10" stroke-linecap="round" stroke-linejoin="round" stroke-dasharray="0.95 0.95"/>
<path opacity="0.5" d="M190.316 44.8393L185.698 40.7617L178.802 37.6435L159.613 35.3648L145.462 35.6047" stroke="#4D2161" stroke-width="0.238009" stroke-miterlimit="10" stroke-linecap="round" stroke-linejoin="round" stroke-dasharray="0.95 0.95"/>
<path opacity="0.5" d="M178.622 18.0352L179.522 55.3336" stroke="#4D2161" stroke-width="0.238009" stroke-miterlimit="10" stroke-linecap="round" stroke-linejoin="round" stroke-dasharray="0.95 0.95"/>
<path opacity="0.5" d="M190.434 28.2289L176.402 63.4285" stroke="#4D2161" stroke-width="0.238009" stroke-miterlimit="10" stroke-linecap="round" stroke-linejoin="round" stroke-dasharray="0.95 0.95"/>
<path opacity="0.5" d="M174.065 69.1255L134.248 152.657" stroke="#4D2161" stroke-width="0.238009" stroke-miterlimit="10" stroke-linecap="round" stroke-linejoin="round" stroke-dasharray="0.95 0.95"/>
<path opacity="0.5" d="M114.339 193.493L112.42 192.893L111.761 187.257L46.8782 149.898" stroke="#4D2161" stroke-width="0.238009" stroke-miterlimit="10" stroke-linecap="round" stroke-linejoin="round" stroke-dasharray="0.95 0.95"/>
<path opacity="0.5" d="M47.1782 121.955C47.1782 121.296 112.96 64.2687 112.96 64.2687C112.96 64.2687 91.4925 29.9685 66.427 15.0972L44 27.9297" stroke="#4D2161" stroke-width="0.238009" stroke-miterlimit="10" stroke-linecap="round" stroke-linejoin="round" stroke-dasharray="0.95 0.95"/>
<path opacity="0.5" d="M148.639 -13.2672C148.579 -13.4471 143.482 -17.7046 143.482 -17.7046L130.95 -4.45227L142.043 6.82119L116.438 32.4863" stroke="#4D2161" stroke-width="0.238009" stroke-miterlimit="10" stroke-linecap="round" stroke-linejoin="round" stroke-dasharray="0.95 0.95"/>
<path opacity="0.5" d="M192.054 46.0991L193.434 47.7781L188.097 63.1292L146.361 146.241L126.093 187.497L175.804 216.58" stroke="#4D2161" stroke-width="0.238009" stroke-miterlimit="10" stroke-linecap="round" stroke-linejoin="round" stroke-dasharray="0.95 0.95"/>
<path opacity="0.5" d="M174.904 147.02C174.904 146.78 179.221 139.045 179.221 139.045L183.779 136.406L222.756 157.754" stroke="#4D2161" stroke-width="0.238009" stroke-miterlimit="10" stroke-linecap="round" stroke-linejoin="round" stroke-dasharray="0.95 0.95"/>
<path opacity="0.5" d="M182.099 119.736L222.876 142.403" stroke="#4D2161" stroke-width="0.238009" stroke-miterlimit="10" stroke-linecap="round" stroke-linejoin="round" stroke-dasharray="0.95 0.95"/>
<path opacity="0.5" d="M130.169 114.999L116.197 120.875L112.839 133.888" stroke="#4D2161" stroke-width="0.238009" stroke-miterlimit="10" stroke-linecap="round" stroke-linejoin="round" stroke-dasharray="0.95 0.95"/>
<path opacity="0.5" d="M75.182 135.867C74.7623 135.627 50.1765 129.51 50.1765 129.51" stroke="#4D2161" stroke-width="0.238009" stroke-miterlimit="10" stroke-linecap="round" stroke-linejoin="round" stroke-dasharray="0.95 0.95"/>
<path opacity="0.5" d="M83.6954 98.3289L47.2366 131.49" stroke="#4D2161" stroke-width="0.238009" stroke-miterlimit="10" stroke-linecap="round" stroke-linejoin="round" stroke-dasharray="0.95 0.95"/>
<path opacity="0.5" d="M136.647 76.6212V79.8593L121.716 102.346C121.716 102.346 110.082 97.7889 109.603 97.2493C109.123 96.7096 99.8882 85.3162 99.8882 85.3162L93.5319 85.7959" stroke="#4D2161" stroke-width="0.238009" stroke-miterlimit="10" stroke-linecap="round" stroke-linejoin="round" stroke-dasharray="0.95 0.95"/>
<path opacity="0.5" d="M126.992 101.866L125.013 108.822" stroke="#4D2161" stroke-width="0.238009" stroke-miterlimit="10" stroke-linecap="round" stroke-linejoin="round" stroke-dasharray="0.95 0.95"/>
<path opacity="0.5" d="M121.714 102.346L126.152 103.965" stroke="#4D2161" stroke-width="0.238009" stroke-miterlimit="10" stroke-linecap="round" stroke-linejoin="round" stroke-dasharray="0.95 0.95"/>
<path opacity="0.5" d="M144.082 110.981L152.957 112.9" stroke="#4D2161" stroke-width="0.238009" stroke-miterlimit="10" stroke-linecap="round" stroke-linejoin="round" stroke-dasharray="0.95 0.95"/>
<path opacity="0.5" d="M157.274 82.3777L138.745 78.5999L136.406 89.0338" stroke="#4D2161" stroke-width="0.238009" stroke-miterlimit="10" stroke-linecap="round" stroke-linejoin="round" stroke-dasharray="0.95 0.95"/>
<path opacity="0.5" d="M114.34 98.9281C114.34 98.9281 133.948 82.1978 133.768 81.9579C133.588 81.7181 118.057 64.7479 118.057 64.7479" stroke="#4D2161" stroke-width="0.238009" stroke-miterlimit="10" stroke-linecap="round" stroke-linejoin="round" stroke-dasharray="0.95 0.95"/>
<path opacity="0.5" d="M116.318 70.3245L120.156 67.1464" stroke="#4D2161" stroke-width="0.238009" stroke-miterlimit="10" stroke-linecap="round" stroke-linejoin="round" stroke-dasharray="0.95 0.95"/>
<path opacity="0.5" d="M85.556 34.6455L48.3176 66.0073" stroke="#4D2161" stroke-width="0.238009" stroke-miterlimit="10" stroke-linecap="round" stroke-linejoin="round" stroke-dasharray="0.95 0.95"/>
<path opacity="0.5" d="M56.2333 58.9917L59.5913 63.5491L63.4891 60.3109L86.096 87.4752" stroke="#4D2161" stroke-width="0.238009" stroke-miterlimit="10" stroke-linecap="round" stroke-linejoin="round" stroke-dasharray="0.95 0.95"/>
<path opacity="0.5" d="M189.955 94.7308L175.803 87.7748" stroke="#4D2161" stroke-width="0.238009" stroke-miterlimit="10" stroke-linecap="round" stroke-linejoin="round" stroke-dasharray="0.95 0.95"/>
<path opacity="0.5" d="M196.012 66.9664L202.188 61.8094L201.289 59.6506L206.686 55.0933L203.927 52.6946L209.564 47.9574" stroke="#4D2161" stroke-width="0.238009" stroke-miterlimit="10" stroke-linecap="round" stroke-linejoin="round" stroke-dasharray="0.95 0.95"/>
<path opacity="0.5" d="M122.614 153.017L132.448 155.775L127.471 161.352L118.476 178.862L115.658 179.581L47.3573 142.163" stroke="#4D2161" stroke-width="0.238009" stroke-miterlimit="10" stroke-linecap="round" stroke-linejoin="round" stroke-dasharray="0.95 0.95"/>
<g opacity="0.5">
<path opacity="0.5" d="M179.461 131.49L181.14 132.329" stroke="#4D2161" stroke-width="0.238009" stroke-miterlimit="10" stroke-linecap="round" stroke-linejoin="round"/>
<path opacity="0.5" d="M179.941 130.41L181.68 131.25" stroke="#4D2161" stroke-width="0.238009" stroke-miterlimit="10" stroke-linecap="round" stroke-linejoin="round"/>
<path opacity="0.5" d="M180.42 129.271L182.159 130.17" stroke="#4D2161" stroke-width="0.238009" stroke-miterlimit="10" stroke-linecap="round" stroke-linejoin="round"/>
<path opacity="0.5" d="M180.959 128.191L182.638 129.091" stroke="#4D2161" stroke-width="0.238009" stroke-miterlimit="10" stroke-linecap="round" stroke-linejoin="round"/>
<path opacity="0.5" d="M181.44 127.112L183.179 128.011" stroke="#4D2161" stroke-width="0.238009" stroke-miterlimit="10" stroke-linecap="round" stroke-linejoin="round"/>
<path opacity="0.5" d="M181.92 126.033L183.659 126.872" stroke="#4D2161" stroke-width="0.238009" stroke-miterlimit="10" stroke-linecap="round" stroke-linejoin="round"/>
</g>
<g opacity="0.5">
<path opacity="0.5" d="M173.164 68.6458L174.903 69.5452" stroke="#4D2161" stroke-width="0.238009" stroke-miterlimit="10" stroke-linecap="round" stroke-linejoin="round"/>
<path opacity="0.5" d="M173.645 67.5666L175.384 68.4661" stroke="#4D2161" stroke-width="0.238009" stroke-miterlimit="10" stroke-linecap="round" stroke-linejoin="round"/>
<path opacity="0.5" d="M174.184 66.4869L175.923 67.3264" stroke="#4D2161" stroke-width="0.238009" stroke-miterlimit="10" stroke-linecap="round" stroke-linejoin="round"/>
<path opacity="0.5" d="M174.664 65.4077L176.403 66.2472" stroke="#4D2161" stroke-width="0.238009" stroke-miterlimit="10" stroke-linecap="round" stroke-linejoin="round"/>
<path opacity="0.5" d="M175.144 64.3281L176.883 65.1676" stroke="#4D2161" stroke-width="0.238009" stroke-miterlimit="10" stroke-linecap="round" stroke-linejoin="round"/>
<path opacity="0.5" d="M175.683 63.2489L177.422 64.0884" stroke="#4D2161" stroke-width="0.238009" stroke-miterlimit="10" stroke-linecap="round" stroke-linejoin="round"/>
</g>
<path opacity="0.5" d="M157.935 123.994L175.684 121.115L184.619 123.574L222.457 143.422" stroke="#4D2161" stroke-width="0.238009" stroke-miterlimit="10" stroke-linecap="round" stroke-linejoin="round" stroke-dasharray="0.95 0.95"/>
</g>
</g>
<path d="M141.623 6.88149C141.263 7.24128 141.263 7.84093 141.683 8.20072L157.034 22.7123L159.193 39.8624L154.816 59.471L139.464 43.4003L143.122 39.8024C143.482 39.4426 143.482 38.843 143.122 38.4832C142.763 38.1234 142.163 38.1234 141.803 38.4832L131.849 48.2575L110.201 25.5307C109.842 25.1709 109.242 25.1709 108.882 25.4707C108.522 25.8305 108.522 26.4302 108.822 26.7899L130.71 49.7566L129.031 53.3545L111.94 68.5857L97.249 51.1958C97.189 51.1358 97.189 51.0759 97.129 50.9559C97.069 50.896 97.0091 50.836 96.8892 50.776L86.0954 38.0034C85.9155 37.8236 85.6757 37.7036 85.4358 37.6437C85.1959 37.6437 84.9561 37.7036 84.7762 37.8835L66.0071 54.0741C64.6878 55.2135 64.5079 57.1324 65.5873 58.4516L72.7831 67.5663C73.8625 68.9455 75.7814 69.1854 77.2206 68.106L96.2295 52.8149L110.501 69.785L67.866 107.743L63.0088 101.687L76.8008 89.8734C78.8996 88.0744 79.1994 84.9562 77.4604 82.7375L63.6084 65.4675C63.4286 65.2876 63.2487 65.1677 63.0088 65.1077L54.5537 64.0883C54.074 64.0284 53.5942 64.3882 53.5343 64.9278C53.4743 65.4675 53.8341 65.8873 54.3738 65.9473L62.4691 66.9067L66.5467 71.9438L50.8358 85.7358C49.8764 86.5753 49.7565 88.0744 50.536 89.0938L66.6667 109.122L47.058 126.572C46.6982 126.932 46.6383 127.532 46.9981 127.891C47.178 128.071 47.4178 128.191 47.7177 128.191C47.9575 128.191 48.1374 128.131 48.3173 127.951L81.8379 98.0886L129.93 115.479L128.611 121.955C128.491 122.435 128.851 122.974 129.33 123.034C129.39 123.034 129.45 123.034 129.51 123.034C129.93 123.034 130.35 122.734 130.41 122.315L137.186 89.5736C137.306 89.0938 136.946 88.5541 136.466 88.4942C135.986 88.3742 135.447 88.734 135.387 89.2138L130.29 113.62L83.397 96.6495L88.3141 92.272C89.0337 93.3514 90.7727 95.3902 93.771 95.3902C93.8909 95.3902 93.9509 95.3902 94.0708 95.3902C94.2507 95.3902 94.4905 95.3302 94.6105 95.1503L97.9086 92.4519C98.3283 92.1521 98.3883 91.5524 98.0285 91.1327C97.7287 90.7129 97.129 90.6529 96.7093 91.0127L93.651 93.5313C91.3124 93.4713 90.0531 91.6723 89.6933 91.0727L120.396 63.7285L131.129 75.9614C132.029 76.9809 133.348 77.5205 134.667 77.5205C135.747 77.5205 136.826 77.1608 137.725 76.3812L141.803 72.8433C142.763 72.0037 143.362 70.8644 143.422 69.6051C143.482 68.3459 143.062 67.0866 142.223 66.1871L131.009 53.8942L132.688 50.2364L138.205 44.8395L154.396 61.8096L150.558 79.0796C150.438 79.5594 150.738 80.0991 151.278 80.219C151.338 80.219 151.398 80.219 151.458 80.219C151.877 80.219 152.297 79.9191 152.357 79.4994L161.052 40.2821C161.052 40.1622 161.052 40.0423 161.052 39.9823L158.833 22.3525C158.833 22.1127 158.713 21.9328 158.533 21.8128L142.882 7.06138C142.583 6.46173 141.983 6.5217 141.623 6.88149ZM76.1412 66.7868C75.5415 67.2065 74.762 67.0866 74.3422 66.5469L67.1464 57.4322C66.7266 56.8925 66.7866 56.053 67.3263 55.6332L85.3758 40.0423L95.0902 51.5556L76.1412 66.7868ZM51.9152 87.8945C51.7353 87.6547 51.7353 87.3548 51.9752 87.115L67.6261 73.3829L76.1412 84.0568C77.2206 85.436 77.0407 87.4148 75.7214 88.5541L61.9294 100.307L51.9152 87.8945ZM140.844 67.3864C141.383 67.9261 141.623 68.7057 141.563 69.4252C141.503 70.2048 141.143 70.8644 140.604 71.4041L136.526 74.942C135.387 75.9614 133.588 75.8415 132.568 74.6422L121.835 62.4093L129.87 55.2734L140.844 67.3864Z" fill="#363636"/>
<path d="M225.155 104.564L215.62 104.324L215.8 91.252L222.337 93.9504C222.816 94.1303 223.356 93.8905 223.596 93.4707C223.776 92.991 223.536 92.4513 223.116 92.2714L215.62 89.1532C215.501 89.0932 215.441 89.0932 215.321 89.0932C215.321 89.0932 215.321 89.0932 215.261 89.0932H214.601L193.673 88.3737C193.313 88.3737 193.014 88.5536 192.834 88.8534L185.818 101.626C185.758 101.746 185.698 101.866 185.698 102.046L184.918 118.236L180.661 118.656L161.772 109.062L194.333 40.1016L206.746 45.9782L213.881 53.6538L197.631 66.9061C197.211 67.2059 197.151 67.8056 197.511 68.2253C197.691 68.4652 197.991 68.5851 198.231 68.5851C198.41 68.5851 198.65 68.5252 198.83 68.3453L203.507 64.5675L214.541 73.8021C214.721 73.922 214.901 74.042 215.141 74.042C215.381 74.042 215.68 73.922 215.86 73.6822C216.22 73.2624 216.16 72.7227 215.74 72.3629L204.947 63.3082L208.964 60.0101L221.017 72.9026C221.197 73.0825 221.437 73.2024 221.677 73.2024C221.917 73.2024 222.157 73.1425 222.337 72.9626C222.696 72.6028 222.756 72.0032 222.397 71.6434L210.403 58.8708L222.516 48.9765C222.936 48.6767 222.996 48.077 222.636 47.6573C222.337 47.2375 221.737 47.1775 221.317 47.5373L215.261 52.4545L207.945 44.599C207.885 44.5391 207.765 44.4191 207.645 44.4191L195.052 38.4826L195.772 36.9235C196.971 34.345 196.312 31.2868 194.153 29.4278L193.074 28.4684L206.746 5.74156C206.985 5.32181 206.866 4.72216 206.446 4.4823C206.026 4.24243 205.426 4.36237 205.187 4.78212L191.694 27.2091L174.304 12.3377C173.645 11.7981 172.685 11.858 172.086 12.5176C171.546 13.1773 171.606 14.1367 172.266 14.7364L192.174 31.7665C193.253 32.7259 193.613 34.2251 192.954 35.5443L158.833 107.742L158.114 109.302L120.636 188.576L114.579 182.339C114.459 182.219 114.339 182.159 114.219 182.039L102.046 175.263C102.286 175.203 102.466 175.023 102.586 174.784L104.625 170.766C104.685 170.706 104.685 170.646 104.685 170.586L113.5 135.087C113.56 134.847 113.5 134.607 113.38 134.367C113.26 134.127 113.02 134.007 112.78 133.947L84.4165 127.351C83.9368 127.231 83.3971 127.531 83.2772 128.071C83.1573 128.55 83.4571 129.09 83.9968 129.21L111.461 135.566L102.886 170.046L100.907 174.004C100.787 174.244 100.787 174.424 100.847 174.664L78.8997 162.491L87.2949 146.18C87.9545 144.981 88.0145 143.542 87.5947 142.222C87.115 140.903 86.2155 139.884 84.9562 139.284L76.5011 135.446C76.0214 135.207 75.4817 135.446 75.2419 135.926C75.002 136.406 75.2419 136.946 75.7216 137.185L84.1767 141.023C84.9562 141.383 85.5559 142.043 85.8557 142.822C86.1555 143.662 86.0956 144.501 85.6758 145.281L77.2807 161.591L47.358 144.921C46.5785 144.501 45.679 144.801 45.2592 145.521C44.8395 146.3 45.1393 147.2 45.8589 147.619L112.48 184.678L119.136 191.514L119.196 191.574L107.983 215.32C107.623 216.1 107.923 217.059 108.702 217.419C108.942 217.539 109.122 217.599 109.362 217.599C109.962 217.599 110.501 217.239 110.801 216.699L120.935 195.292L163.211 218.738C163.451 218.858 163.691 218.918 163.99 218.918C164.53 218.918 165.07 218.618 165.37 218.138C165.789 217.359 165.49 216.459 164.77 216.04L122.315 192.473L151.278 131.129L162.791 136.946L146.301 165.309C146.061 165.729 146.181 166.328 146.66 166.568C146.78 166.628 146.96 166.688 147.14 166.688C147.44 166.688 147.8 166.508 147.98 166.209L155.415 153.436L167.288 160.272L159.073 175.203C158.114 176.942 158.713 179.101 160.392 180.12L181.021 192.893C181.62 193.253 182.28 193.433 182.999 193.433C183.299 193.433 183.659 193.373 183.959 193.313C184.918 193.073 185.758 192.353 186.238 191.514L194.633 175.923L204.347 181.5C205.306 182.039 205.966 182.939 206.206 183.958C206.446 185.038 206.326 186.117 205.726 187.016L196.312 202.068C196.252 202.128 196.252 202.188 196.192 202.248L191.814 214.9C191.634 215.38 191.934 215.92 192.414 216.1C192.534 216.16 192.594 216.16 192.714 216.16C193.074 216.16 193.493 215.92 193.613 215.5L197.931 202.967L207.285 188.036C208.125 186.657 208.365 185.098 208.005 183.538C207.645 181.979 206.626 180.72 205.246 179.881L169.807 159.492L175.804 148.579C176.043 148.099 175.864 147.559 175.444 147.319C174.964 147.08 174.424 147.26 174.184 147.679L168.188 158.533L156.315 151.697L164.95 136.886C165.07 136.646 165.13 136.406 165.01 136.166C164.95 135.926 164.77 135.686 164.53 135.566L152.117 129.33L160.872 110.741L179.941 120.395C180.061 120.455 180.241 120.515 180.361 120.515C180.421 120.515 180.421 120.515 180.481 120.515L185.818 119.975L221.197 121.235H221.257C221.737 121.235 222.157 120.815 222.217 120.335C222.217 119.795 221.857 119.376 221.317 119.376L186.777 118.116L187.497 102.286L194.153 90.2326L213.941 90.8922L213.762 104.264L207.585 104.145C207.105 104.145 206.626 104.564 206.626 105.044C206.626 105.584 207.045 106.003 207.525 106.003L214.241 106.183H214.961L225.035 106.423C225.515 106.423 225.934 106.003 225.994 105.524C226.054 104.984 225.635 104.564 225.155 104.564ZM168.968 161.111L193.014 174.963L184.618 190.614C184.379 191.094 183.959 191.394 183.479 191.514C182.999 191.634 182.46 191.574 182.04 191.274L161.412 178.501C160.572 177.962 160.273 176.942 160.752 176.043L168.968 161.111Z" fill="#363636"/>
<path d="M54.4345 14.3765L46.8189 19.2937C46.3991 19.5935 46.2792 20.1332 46.5191 20.6129C46.699 20.9128 46.9988 21.0327 47.2986 21.0327C47.4785 21.0327 47.6584 20.9727 47.7783 20.9128L56.1135 15.5159L63.2494 14.3166L72.3041 29.068C73.0837 30.3873 72.6639 32.1862 71.3447 33.0257L47.5385 47.8371C47.1187 48.137 46.9388 48.6767 47.2387 49.1564C47.4185 49.4562 47.7184 49.5761 48.0182 49.5761C48.1981 49.5761 48.378 49.5162 48.4979 49.4562L72.3041 34.6448C74.5228 33.2656 75.1825 30.3873 73.8632 28.1686L64.9884 13.2972L75.962 2.44346C76.3218 2.08367 76.3218 1.48402 75.962 1.12423L69.5457 -5.53191C69.1859 -5.89171 68.5863 -5.89171 68.2265 -5.53191C67.8667 -5.17212 67.8667 -4.57247 68.2265 -4.21268L74.0431 1.84381L63.6691 12.0979C63.5492 12.0979 63.3693 12.1578 63.2494 12.2178C63.1294 12.2778 63.0095 12.3977 62.9495 12.5176L56.2934 13.597L46.8789 3.40291C46.5191 3.04311 45.9194 2.98315 45.5596 3.34294C45.1998 3.70273 45.1399 4.30238 45.4997 4.66218L54.4345 14.3765Z" fill="#363636"/>
<ellipse cx="134.5" cy="91" rx="53.5" ry="31" fill="#FFCC3F" fill-opacity="0.1"/>
<path d="M187.875 91C187.875 99.4971 181.93 107.213 172.268 112.812C162.608 118.409 149.256 121.875 134.5 121.875C119.744 121.875 106.392 118.409 96.7325 112.812C87.0699 107.213 81.125 99.4971 81.125 91C81.125 82.5029 87.0699 74.7867 96.7325 69.1878C106.392 63.5908 119.744 60.125 134.5 60.125C149.256 60.125 162.608 63.5908 172.268 69.1878C181.93 74.7867 187.875 82.5029 187.875 91Z" stroke="#FFCC3F" stroke-opacity="0.1" stroke-width="0.25"/>
<circle cx="93.5" cy="90.5" r="1.5" fill="#D9D9D9"/>
<circle cx="93.5" cy="90.5" r="1.5" fill="#FFCC3F"/>
<circle cx="93.5" cy="90.5" r="1.5" fill="url(#paint0_linear_4728_13490)"/>
<circle cx="165.5" cy="108.5" r="1.5" fill="#D9D9D9"/>
<circle cx="165.5" cy="108.5" r="1.5" fill="#FFCC3F"/>
<circle cx="165.5" cy="108.5" r="1.5" fill="url(#paint1_linear_4728_13490)"/>
<circle cx="128.5" cy="109.5" r="1.5" fill="#D9D9D9"/>
<circle cx="128.5" cy="109.5" r="1.5" fill="#FFCC3F"/>
<circle cx="128.5" cy="109.5" r="1.5" fill="url(#paint2_linear_4728_13490)"/>
<circle cx="155.5" cy="78.5" r="1.5" fill="#D9D9D9"/>
<circle cx="155.5" cy="78.5" r="1.5" fill="#FFCC3F"/>
<circle cx="155.5" cy="78.5" r="1.5" fill="url(#paint3_linear_4728_13490)"/>
</g>
<rect x="43.5" y="24.75" width="183" height="125" rx="16.5" stroke="#19191D" stroke-width="3"/>
</g>
<g filter="">
<path d="M125.02 24.25H85.5495H59.6708C50.5581 24.25 43.1708 31.6373 43.1708 40.75V133.663C43.1708 142.776 50.5581 150.163 59.6708 150.163H64.0045" stroke="url(#paint4_linear_4728_13490)" stroke-width="1.5"/>
</g>
<g clip-path="url(#clip1_4728_13490)">
<path d="M154.524 55.9493C154.511 55.368 154.472 54.7927 154.408 54.2252C154.336 53.5864 154.232 52.957 154.098 52.3388C154.068 52.2013 154.037 52.0644 154.004 51.9282C153.939 51.6554 153.867 51.385 153.79 51.1169C153.752 50.9828 153.712 50.8493 153.67 50.7164C153.629 50.5836 153.587 50.4514 153.542 50.3199C153.432 49.9907 153.313 49.6656 153.185 49.3445C153.11 49.1552 153.031 48.9673 152.95 48.7807C152.945 48.7702 152.941 48.7597 152.936 48.7493C152.912 48.6935 152.887 48.6377 152.862 48.5823C152.778 48.3937 152.69 48.2068 152.6 48.0215C152.575 47.9702 152.549 47.9188 152.524 47.8677C152.516 47.8525 152.508 47.8373 152.5 47.8221C152.477 47.7748 152.453 47.7275 152.428 47.6805C152.421 47.6649 152.413 47.6494 152.405 47.6338C152.382 47.5886 152.358 47.5436 152.334 47.499C152.322 47.4753 152.31 47.452 152.297 47.4287C152.276 47.3898 152.256 47.3513 152.235 47.3127C152.22 47.2854 152.205 47.258 152.19 47.2306C152.168 47.1897 152.146 47.1492 152.123 47.1089C152.058 46.992 151.992 46.8757 151.925 46.7605C151.871 46.6689 151.817 46.5779 151.762 46.4873C151.736 46.4444 151.71 46.4015 151.683 46.3589C151.668 46.3346 151.653 46.3106 151.638 46.2862C151.617 46.2518 151.595 46.2176 151.574 46.1835C151.55 46.1466 151.527 46.1098 151.503 46.0733C151.494 46.0588 151.485 46.0442 151.475 46.0297C151.445 45.9824 151.414 45.9354 151.383 45.8887C151.228 45.6528 151.068 45.4206 150.903 45.1918C150.881 45.1614 150.859 45.131 150.837 45.1009C150.814 45.0701 150.792 45.0397 150.769 45.0093C150.749 44.9809 150.727 44.9525 150.706 44.9241C150.682 44.8913 150.657 44.8592 150.632 44.8267C150.615 44.8034 150.598 44.7804 150.58 44.7575C150.548 44.7152 150.515 44.6733 150.483 44.6317C150.472 44.6169 150.46 44.6023 150.448 44.5874C150.404 44.5307 150.359 44.4739 150.314 44.4178C150.216 44.2954 150.117 44.1747 150.016 44.0551C149.973 44.0037 149.929 43.952 149.885 43.901C149.867 43.88 149.85 43.8594 149.831 43.8391C149.791 43.7925 149.751 43.7458 149.71 43.6995C149.658 43.641 149.606 43.5826 149.553 43.5248C149.501 43.4666 149.448 43.4088 149.395 43.3517C149.342 43.2943 149.288 43.2371 149.234 43.1803C149.132 43.0732 149.029 42.9671 148.925 42.862C148.917 42.8535 148.909 42.8454 148.901 42.8369C148.847 42.7839 148.794 42.7311 148.74 42.6784C148.687 42.6257 148.637 42.577 148.584 42.527C148.575 42.5172 148.565 42.5077 148.554 42.4983C148.506 42.4516 148.456 42.4053 148.407 42.3593C148.404 42.356 148.4 42.3526 148.396 42.3489C148.341 42.2968 148.285 42.2454 148.229 42.1941C148.055 42.0355 147.878 41.8801 147.699 41.7276C147.644 41.681 147.589 41.6343 147.533 41.588C147.519 41.5762 147.505 41.5647 147.491 41.5529C147.442 41.5123 147.392 41.4718 147.342 41.4319C147.338 41.4282 147.334 41.4251 147.33 41.4217C147.272 41.3741 147.212 41.3271 147.153 41.2801C147.091 41.2314 147.029 41.1831 146.967 41.1351C146.911 41.0918 146.855 41.0493 146.799 41.007C146.656 40.8985 146.51 40.792 146.364 40.6879C146.312 40.6507 146.26 40.6139 146.207 40.5771C146.206 40.5767 146.205 40.5761 146.204 40.5757C146.147 40.5352 146.088 40.4949 146.03 40.4554C146.015 40.4449 146 40.4351 145.986 40.4253C145.938 40.3929 145.89 40.3607 145.842 40.329C145.828 40.3192 145.814 40.3097 145.799 40.3002C145.739 40.2604 145.678 40.2208 145.617 40.1816C145.554 40.1407 145.49 40.1001 145.427 40.0599C145.423 40.0576 145.419 40.0552 145.415 40.0525C145.354 40.014 145.292 39.9758 145.23 39.9379C145.216 39.9291 145.202 39.9207 145.188 39.9126C145.131 39.8774 145.074 39.8426 145.016 39.8084C145.013 39.8061 145.009 39.8041 145.005 39.8017C144.942 39.7638 144.877 39.7263 144.813 39.6888C144.808 39.6861 144.803 39.6831 144.799 39.6803C144.742 39.6479 144.686 39.6158 144.63 39.5837C144.609 39.5722 144.589 39.5607 144.569 39.5495C144.524 39.5242 144.479 39.4992 144.433 39.4742C144.413 39.4623 144.392 39.4512 144.371 39.4397C144.323 39.4133 144.274 39.3873 144.225 39.3613C144.142 39.3167 144.059 39.2724 143.975 39.2291C143.907 39.194 143.838 39.1588 143.77 39.1243C143.767 39.123 143.765 39.122 143.763 39.121C143.693 39.0858 143.623 39.0513 143.553 39.0175C143.547 39.0141 143.54 39.0108 143.534 39.0081C143.474 38.9783 143.413 38.9493 143.353 38.9209C143.332 38.9107 143.311 38.9013 143.291 38.8915C143.248 38.8715 143.206 38.8516 143.163 38.8323C143.128 38.8157 143.092 38.7992 143.056 38.783C143.031 38.7718 143.006 38.7603 142.981 38.7495C142.93 38.7265 142.879 38.7039 142.828 38.6816C142.823 38.6789 142.817 38.6765 142.812 38.6745C142.76 38.6515 142.708 38.6292 142.656 38.6069C142.618 38.5906 142.58 38.5744 142.542 38.5589C142.508 38.544 142.474 38.5298 142.44 38.5159C142.375 38.4892 142.311 38.4629 142.245 38.4368C142.242 38.4355 142.239 38.4341 142.236 38.4328C142.178 38.4098 142.121 38.3868 142.063 38.3645C141.991 38.3365 141.919 38.3087 141.847 38.2817C141.791 38.2607 141.735 38.2401 141.68 38.2198C141.662 38.2131 141.645 38.207 141.628 38.2009C141.578 38.1827 141.528 38.1648 141.478 38.1472C141.466 38.1428 141.455 38.1384 141.443 38.1347C141.382 38.113 141.321 38.0917 141.259 38.0708C141.196 38.0495 141.134 38.0285 141.071 38.0076C141 37.9843 140.929 37.9613 140.857 37.9386C140.79 37.9173 140.723 37.896 140.655 37.8754C140.573 37.8504 140.491 37.8261 140.409 37.8021C140.358 37.7872 140.307 37.7723 140.256 37.7581C140.042 37.6973 139.827 37.6402 139.61 37.5868C139.562 37.5749 139.515 37.5634 139.467 37.552C139.387 37.5327 139.308 37.5144 139.228 37.4965C139.195 37.4891 139.162 37.4817 139.129 37.4746C139.114 37.4708 139.098 37.4671 139.082 37.4641C139.051 37.457 139.02 37.4502 138.989 37.4438C138.939 37.433 138.889 37.4225 138.838 37.4124C138.825 37.4093 138.811 37.4066 138.797 37.4039C138.796 37.4036 138.796 37.4036 138.795 37.4032C137.494 37.1389 136.146 37 134.765 37C123.849 37 115 45.6799 115 56.3867C115 65.2376 120.887 75.8045 126.235 83.5779C126.293 83.6614 126.35 83.7445 126.408 83.8273C126.468 83.9149 126.529 84.0021 126.589 84.0889C126.65 84.1758 126.71 84.2623 126.77 84.3485C126.908 84.5463 127.046 84.7416 127.183 84.935C127.225 84.9944 127.267 85.0539 127.309 85.1127C127.364 85.1898 127.419 85.2665 127.474 85.3429C127.478 85.3497 127.483 85.3564 127.488 85.3629C127.547 85.446 127.607 85.5285 127.665 85.6106C127.842 85.857 128.018 86.1 128.193 86.3387C128.222 86.3786 128.251 86.4181 128.28 86.4577C128.339 86.5398 128.399 86.6216 128.459 86.7027C128.495 86.7517 128.531 86.8004 128.567 86.8487C128.602 86.8971 128.638 86.9454 128.674 86.9937C128.71 87.0421 128.745 87.09 128.78 87.1377C129.496 88.1017 130.178 88.9937 130.81 89.8005C130.867 89.8735 130.924 89.9458 130.98 90.0175C131.042 90.0959 131.103 90.1736 131.164 90.2504C131.2 90.2967 131.236 90.3426 131.273 90.3883C131.312 90.4373 131.35 90.4859 131.388 90.5339C131.818 91.0744 132.218 91.5686 132.581 92.0117C132.734 92.1972 132.905 92.3568 133.09 92.49C133.131 92.5194 133.173 92.5478 133.215 92.5748C133.236 92.5883 133.258 92.6015 133.279 92.6143C133.322 92.64 133.366 92.6644 133.41 92.6877C133.454 92.711 133.498 92.733 133.543 92.7533C133.656 92.8046 133.772 92.8479 133.889 92.8834C133.936 92.8972 133.984 92.9101 134.031 92.9219C134.079 92.9334 134.127 92.9436 134.175 92.9527C134.175 92.953 134.175 92.9527 134.175 92.9527C134.247 92.9659 134.319 92.9767 134.392 92.9844H134.393C134.742 93.0213 135.097 92.9919 135.436 92.8962C135.485 92.8824 135.534 92.8672 135.582 92.8506C135.63 92.834 135.678 92.8161 135.725 92.7969C135.867 92.7391 136.006 92.6688 136.138 92.5859C136.203 92.5447 136.268 92.5004 136.331 92.4528C136.373 92.4213 136.414 92.3882 136.454 92.3537C136.474 92.3365 136.494 92.3189 136.514 92.301C136.533 92.2831 136.553 92.2648 136.572 92.2463C136.669 92.1533 136.76 92.0519 136.844 91.9421C138.708 89.5108 141.587 85.6005 144.485 81.0635C144.609 80.8705 144.732 80.6765 144.855 80.4811C145.102 80.0904 145.348 79.6956 145.594 79.2971C145.84 78.8986 146.085 78.4964 146.328 78.0908C150.65 70.8924 154.529 62.6783 154.529 56.3867C154.529 56.2404 154.528 56.0947 154.524 55.9493ZM134.765 43.9084C141.791 43.9084 147.486 49.4952 147.486 56.3867C147.486 63.2782 141.791 68.8654 134.765 68.8654C127.739 68.8654 122.043 63.2786 122.043 56.3867C122.043 49.4949 127.738 43.9084 134.765 43.9084Z" fill="url(#paint5_linear_4728_13490)"/>
<path d="M154.524 55.9493C154.511 55.368 154.472 54.7927 154.408 54.2252C154.336 53.5864 154.232 52.957 154.098 52.3388C154.068 52.2013 154.037 52.0644 154.004 51.9282C153.939 51.6554 153.867 51.385 153.79 51.1169C153.752 50.9828 153.712 50.8493 153.67 50.7164C153.629 50.5836 153.587 50.4514 153.542 50.3199C153.432 49.9907 153.313 49.6656 153.185 49.3445C153.11 49.1552 153.031 48.9673 152.95 48.7807C152.945 48.7702 152.941 48.7597 152.936 48.7493C152.912 48.6935 152.887 48.6377 152.862 48.5823C152.778 48.3937 152.69 48.2068 152.6 48.0215C152.575 47.9702 152.549 47.9188 152.524 47.8677C152.516 47.8525 152.508 47.8373 152.5 47.8221C152.477 47.7748 152.453 47.7275 152.428 47.6805C152.421 47.6649 152.413 47.6494 152.405 47.6338C152.382 47.5886 152.358 47.5436 152.334 47.499C152.322 47.4753 152.31 47.452 152.297 47.4287C152.276 47.3898 152.256 47.3513 152.235 47.3127C152.22 47.2854 152.205 47.258 152.19 47.2306C152.168 47.1897 152.146 47.1492 152.123 47.1089C152.058 46.992 151.992 46.8757 151.925 46.7605C151.871 46.6689 151.817 46.5779 151.762 46.4873C151.736 46.4444 151.71 46.4015 151.683 46.3589C151.668 46.3346 151.653 46.3106 151.638 46.2862C151.617 46.2518 151.595 46.2176 151.574 46.1835C151.55 46.1466 151.527 46.1098 151.503 46.0733C151.494 46.0588 151.485 46.0442 151.475 46.0297C151.445 45.9824 151.414 45.9354 151.383 45.8887C151.228 45.6528 151.068 45.4206 150.903 45.1918C150.881 45.1614 150.859 45.131 150.837 45.1009C150.814 45.0701 150.792 45.0397 150.769 45.0093C150.749 44.9809 150.727 44.9525 150.706 44.9241C150.682 44.8913 150.657 44.8592 150.632 44.8267C150.615 44.8034 150.598 44.7804 150.58 44.7575C150.548 44.7152 150.515 44.6733 150.483 44.6317C150.472 44.6169 150.46 44.6023 150.448 44.5874C150.404 44.5307 150.359 44.4739 150.314 44.4178C150.216 44.2954 150.117 44.1747 150.016 44.0551C149.973 44.0037 149.929 43.952 149.885 43.901C149.867 43.88 149.85 43.8594 149.831 43.8391C149.791 43.7925 149.751 43.7458 149.71 43.6995C149.658 43.641 149.606 43.5826 149.553 43.5248C149.501 43.4666 149.448 43.4088 149.395 43.3517C149.342 43.2943 149.288 43.2371 149.234 43.1803C149.132 43.0732 149.029 42.9671 148.925 42.862C148.917 42.8535 148.909 42.8454 148.901 42.8369C148.847 42.7839 148.794 42.7311 148.74 42.6784C148.687 42.6257 148.637 42.577 148.584 42.527C148.575 42.5172 148.565 42.5077 148.554 42.4983C148.506 42.4516 148.456 42.4053 148.407 42.3593C148.404 42.356 148.4 42.3526 148.396 42.3489C148.341 42.2968 148.285 42.2454 148.229 42.1941C148.055 42.0355 147.878 41.8801 147.699 41.7276C147.644 41.681 147.589 41.6343 147.533 41.588C147.519 41.5762 147.505 41.5647 147.491 41.5529C147.442 41.5123 147.392 41.4718 147.342 41.4319C147.338 41.4282 147.334 41.4251 147.33 41.4217C147.272 41.3741 147.212 41.3271 147.153 41.2801C147.091 41.2314 147.029 41.1831 146.967 41.1351C146.911 41.0918 146.855 41.0493 146.799 41.007C146.656 40.8985 146.51 40.792 146.364 40.6879C146.312 40.6507 146.26 40.6139 146.207 40.5771C146.206 40.5767 146.205 40.5761 146.204 40.5757C146.147 40.5352 146.088 40.4949 146.03 40.4554C146.015 40.4449 146 40.4351 145.986 40.4253C145.938 40.3929 145.89 40.3607 145.842 40.329C145.828 40.3192 145.814 40.3097 145.799 40.3002C145.739 40.2604 145.678 40.2208 145.617 40.1816C145.554 40.1407 145.49 40.1001 145.427 40.0599C145.423 40.0576 145.419 40.0552 145.415 40.0525C145.354 40.014 145.292 39.9758 145.23 39.9379C145.216 39.9291 145.202 39.9207 145.188 39.9126C145.131 39.8774 145.074 39.8426 145.016 39.8084C145.013 39.8061 145.009 39.8041 145.005 39.8017C144.942 39.7638 144.877 39.7263 144.813 39.6888C144.808 39.6861 144.803 39.6831 144.799 39.6803C144.742 39.6479 144.686 39.6158 144.63 39.5837C144.609 39.5722 144.589 39.5607 144.569 39.5495C144.524 39.5242 144.479 39.4992 144.433 39.4742C144.413 39.4623 144.392 39.4512 144.371 39.4397C144.323 39.4133 144.274 39.3873 144.225 39.3613C144.142 39.3167 144.059 39.2724 143.975 39.2291C143.907 39.194 143.838 39.1588 143.77 39.1243C143.767 39.123 143.765 39.122 143.763 39.121C143.693 39.0858 143.623 39.0513 143.553 39.0175C143.547 39.0141 143.54 39.0108 143.534 39.0081C143.474 38.9783 143.413 38.9493 143.353 38.9209C143.332 38.9107 143.311 38.9013 143.291 38.8915C143.248 38.8715 143.206 38.8516 143.163 38.8323C143.128 38.8157 143.092 38.7992 143.056 38.783C143.031 38.7718 143.006 38.7603 142.981 38.7495C142.93 38.7265 142.879 38.7039 142.828 38.6816C142.823 38.6789 142.817 38.6765 142.812 38.6745C142.76 38.6515 142.708 38.6292 142.656 38.6069C142.618 38.5906 142.58 38.5744 142.542 38.5589C142.508 38.544 142.474 38.5298 142.44 38.5159C142.375 38.4892 142.311 38.4629 142.245 38.4368C142.242 38.4355 142.239 38.4341 142.236 38.4328C142.178 38.4098 142.121 38.3868 142.063 38.3645C141.991 38.3365 141.919 38.3087 141.847 38.2817C141.791 38.2607 141.735 38.2401 141.68 38.2198C141.662 38.2131 141.645 38.207 141.628 38.2009C141.578 38.1827 141.528 38.1648 141.478 38.1472C141.466 38.1428 141.455 38.1384 141.443 38.1347C141.382 38.113 141.321 38.0917 141.259 38.0708C141.196 38.0495 141.134 38.0285 141.071 38.0076C141 37.9843 140.929 37.9613 140.857 37.9386C140.79 37.9173 140.723 37.896 140.655 37.8754C140.573 37.8504 140.491 37.8261 140.409 37.8021C140.358 37.7872 140.307 37.7723 140.256 37.7581C140.042 37.6973 139.827 37.6402 139.61 37.5868C139.562 37.5749 139.515 37.5634 139.467 37.552C139.387 37.5327 139.308 37.5144 139.228 37.4965C139.195 37.4891 139.162 37.4817 139.129 37.4746C139.114 37.4708 139.098 37.4671 139.082 37.4641C139.051 37.457 139.02 37.4502 138.989 37.4438C138.939 37.433 138.889 37.4225 138.838 37.4124C138.825 37.4093 138.811 37.4066 138.797 37.4039C138.796 37.4036 138.796 37.4036 138.795 37.4032C137.494 37.1389 136.146 37 134.765 37C123.849 37 115 45.6799 115 56.3867C115 65.2376 120.887 75.8045 126.235 83.5779C126.293 83.6614 126.35 83.7445 126.408 83.8273C126.468 83.9149 126.529 84.0021 126.589 84.0889C126.65 84.1758 126.71 84.2623 126.77 84.3485C126.908 84.5463 127.046 84.7416 127.183 84.935C127.225 84.9944 127.267 85.0539 127.309 85.1127C127.364 85.1898 127.419 85.2665 127.474 85.3429C127.478 85.3497 127.483 85.3564 127.488 85.3629C127.547 85.446 127.607 85.5285 127.665 85.6106C127.842 85.857 128.018 86.1 128.193 86.3387C128.222 86.3786 128.251 86.4181 128.28 86.4577C128.339 86.5398 128.399 86.6216 128.459 86.7027C128.495 86.7517 128.531 86.8004 128.567 86.8487C128.602 86.8971 128.638 86.9454 128.674 86.9937C128.71 87.0421 128.745 87.09 128.78 87.1377C129.496 88.1017 130.178 88.9937 130.81 89.8005C130.867 89.8735 130.924 89.9458 130.98 90.0175C131.042 90.0959 131.103 90.1736 131.164 90.2504C131.2 90.2967 131.236 90.3426 131.273 90.3883C131.312 90.4373 131.35 90.4859 131.388 90.5339C131.818 91.0744 132.218 91.5686 132.581 92.0117C132.734 92.1972 132.905 92.3568 133.09 92.49C133.131 92.5194 133.173 92.5478 133.215 92.5748C133.236 92.5883 133.258 92.6015 133.279 92.6143C133.322 92.64 133.366 92.6644 133.41 92.6877C133.454 92.711 133.498 92.733 133.543 92.7533C133.656 92.8046 133.772 92.8479 133.889 92.8834C133.936 92.8972 133.984 92.9101 134.031 92.9219C134.079 92.9334 134.127 92.9436 134.175 92.9527C134.175 92.953 134.175 92.9527 134.175 92.9527C134.247 92.9659 134.319 92.9767 134.392 92.9844H134.393C134.742 93.0213 135.097 92.9919 135.436 92.8962C135.485 92.8824 135.534 92.8672 135.582 92.8506C135.63 92.834 135.678 92.8161 135.725 92.7969C135.867 92.7391 136.006 92.6688 136.138 92.5859C136.203 92.5447 136.268 92.5004 136.331 92.4528C136.373 92.4213 136.414 92.3882 136.454 92.3537C136.474 92.3365 136.494 92.3189 136.514 92.301C136.533 92.2831 136.553 92.2648 136.572 92.2463C136.669 92.1533 136.76 92.0519 136.844 91.9421C138.708 89.5108 141.587 85.6005 144.485 81.0635C144.609 80.8705 144.732 80.6765 144.855 80.4811C145.102 80.0904 145.348 79.6956 145.594 79.2971C145.84 78.8986 146.085 78.4964 146.328 78.0908C150.65 70.8924 154.529 62.6783 154.529 56.3867C154.529 56.2404 154.528 56.0947 154.524 55.9493ZM134.765 43.9084C141.791 43.9084 147.486 49.4952 147.486 56.3867C147.486 63.2782 141.791 68.8654 134.765 68.8654C127.739 68.8654 122.043 63.2786 122.043 56.3867C122.043 49.4949 127.738 43.9084 134.765 43.9084Z" fill="url(#paint6_angular_4728_13490)"/>
<path d="M134.765 42.6489C127.03 42.6489 120.759 48.7995 120.759 56.3866C120.759 63.9737 127.03 70.1247 134.765 70.1247C142.5 70.1247 148.771 63.9737 148.771 56.3866C148.771 48.7995 142.5 42.6489 134.765 42.6489ZM134.765 68.8653C127.739 68.8653 122.043 63.2785 122.043 56.3866C122.043 49.4948 127.739 43.9083 134.765 43.9083C141.791 43.9083 147.487 49.4951 147.487 56.3866C147.487 63.2781 141.791 68.8653 134.765 68.8653Z" fill="url(#paint7_linear_4728_13490)"/>
<path d="M134.765 42.6489C127.03 42.6489 120.759 48.7995 120.759 56.3866C120.759 63.9737 127.03 70.1247 134.765 70.1247C142.5 70.1247 148.771 63.9737 148.771 56.3866C148.771 48.7995 142.5 42.6489 134.765 42.6489ZM134.765 68.8653C127.739 68.8653 122.043 63.2785 122.043 56.3866C122.043 49.4948 127.739 43.9083 134.765 43.9083C141.791 43.9083 147.487 49.4951 147.487 56.3866C147.487 63.2781 141.791 68.8653 134.765 68.8653Z" fill="url(#paint8_linear_4728_13490)" fill-opacity="0.3"/>
<path opacity="0.17" d="M154.529 56.387C154.529 67.7293 141.919 85.3213 136.844 91.9424C135.786 93.3234 133.686 93.3579 132.582 92.012C130.977 90.0563 128.662 87.1045 126.236 83.5782C127.784 84.6554 129.332 85.7329 130.88 86.8102C131.872 87.5007 132.972 88.2227 134.181 88.1365C135.602 88.0357 136.679 86.8659 137.57 85.762C139.757 83.0526 141.795 80.2235 143.669 77.2917C146.818 72.366 150.085 67.1456 151.368 61.4537C152.988 54.2667 151.817 49.8139 148.685 44.8832C146.575 41.5609 142.548 38.5301 138.795 37.4032C147.778 39.2287 154.529 47.0345 154.529 56.3867V56.387Z" fill="url(#paint9_linear_4728_13490)" fill-opacity="0.8"/>
<path opacity="0.15" d="M131.933 42.6819C126.268 43.8017 121.82 48.216 120.755 53.7994C120.722 53.9691 120.556 54.081 120.383 54.0478L115.892 53.1887C115.721 53.1559 115.609 52.994 115.641 52.826C115.895 51.5014 116.294 50.2085 116.834 48.9565C117.814 46.6838 119.217 44.6423 121.004 42.8894C122.792 41.1362 124.873 39.7599 127.19 38.7986C128.335 38.3234 129.515 37.96 130.72 37.7102C130.887 37.6754 131.053 37.7775 131.093 37.9408L132.179 42.3037C132.221 42.4754 132.109 42.6467 131.933 42.6816V42.6819Z" fill="url(#paint10_linear_4728_13490)"/>
</g>
<defs>
<filter id="filter0_ddddiii_4728_13490" x="24" y="17.25" width="214.5" height="152" filterUnits="userSpaceOnUse" color-interpolation-filters="sRGB">
<feFlood flood-opacity="0" result="BackgroundImageFix"/>
<feColorMatrix in="SourceAlpha" type="matrix" values="0 0 0 0 0 0 0 0 0 0 0 0 0 0 0 0 0 0 127 0" result="hardAlpha"/>
<feOffset dy="3"/>
<feGaussianBlur stdDeviation="1.875"/>
<feComposite in2="hardAlpha" operator="out"/>
<feColorMatrix type="matrix" values="0 0 0 0 0 0 0 0 0 0 0 0 0 0 0 0 0 0 0.06 0"/>
<feBlend mode="normal" in2="BackgroundImageFix" result="effect1_dropShadow_4728_13490"/>
<feColorMatrix in="SourceAlpha" type="matrix" values="0 0 0 0 0 0 0 0 0 0 0 0 0 0 0 0 0 0 127 0" result="hardAlpha"/>
<feOffset dy="1.5"/>
<feGaussianBlur stdDeviation="0.75"/>
<feComposite in2="hardAlpha" operator="out"/>
<feColorMatrix type="matrix" values="0 0 0 0 0 0 0 0 0 0 0 0 0 0 0 0 0 0 0.09 0"/>
<feBlend mode="normal" in2="effect1_dropShadow_4728_13490" result="effect2_dropShadow_4728_13490"/>
<feColorMatrix in="SourceAlpha" type="matrix" values="0 0 0 0 0 0 0 0 0 0 0 0 0 0 0 0 0 0 127 0" result="hardAlpha"/>
<feOffset dx="3" dy="3"/>
<feGaussianBlur stdDeviation="3.75"/>
<feComposite in2="hardAlpha" operator="out"/>
<feColorMatrix type="matrix" values="0 0 0 0 0 0 0 0 0 0 0 0 0 0 0 0 0 0 0.1 0"/>
<feBlend mode="normal" in2="effect2_dropShadow_4728_13490" result="effect3_dropShadow_4728_13490"/>
<feColorMatrix in="SourceAlpha" type="matrix" values="0 0 0 0 0 0 0 0 0 0 0 0 0 0 0 0 0 0 127 0" result="hardAlpha"/>
<feOffset dx="-6" dy="6"/>
<feGaussianBlur stdDeviation="6"/>
<feComposite in2="hardAlpha" operator="out"/>
<feColorMatrix type="matrix" values="0 0 0 0 0 0 0 0 0 0 0 0 0 0 0 0 0 0 0.1 0"/>
<feBlend mode="normal" in2="effect3_dropShadow_4728_13490" result="effect4_dropShadow_4728_13490"/>
<feBlend mode="normal" in="SourceGraphic" in2="effect4_dropShadow_4728_13490" result="shape"/>
<feColorMatrix in="SourceAlpha" type="matrix" values="0 0 0 0 0 0 0 0 0 0 0 0 0 0 0 0 0 0 127 0" result="hardAlpha"/>
<feOffset dx="3" dy="3"/>
<feGaussianBlur stdDeviation="1.5"/>
<feComposite in2="hardAlpha" operator="arithmetic" k2="-1" k3="1"/>
<feColorMatrix type="matrix" values="0 0 0 0 1 0 0 0 0 1 0 0 0 0 1 0 0 0 0.2 0"/>
<feBlend mode="normal" in2="shape" result="effect5_innerShadow_4728_13490"/>
<feColorMatrix in="SourceAlpha" type="matrix" values="0 0 0 0 0 0 0 0 0 0 0 0 0 0 0 0 0 0 127 0" result="hardAlpha"/>
<feOffset dy="-3.75"/>
<feGaussianBlur stdDeviation="0.75"/>
<feComposite in2="hardAlpha" operator="arithmetic" k2="-1" k3="1"/>
<feColorMatrix type="matrix" values="0 0 0 0 0 0 0 0 0 0 0 0 0 0 0 0 0 0 0.1 0"/>
<feBlend mode="normal" in2="effect5_innerShadow_4728_13490" result="effect6_innerShadow_4728_13490"/>
<feColorMatrix in="SourceAlpha" type="matrix" values="0 0 0 0 0 0 0 0 0 0 0 0 0 0 0 0 0 0 127 0" result="hardAlpha"/>
<feOffset dy="3"/>
<feGaussianBlur stdDeviation="1.5"/>
<feComposite in2="hardAlpha" operator="arithmetic" k2="-1" k3="1"/>
<feColorMatrix type="matrix" values="0 0 0 0 1 0 0 0 0 1 0 0 0 0 1 0 0 0 0.25 0"/>
<feBlend mode="normal" in2="effect6_innerShadow_4728_13490" result="effect7_innerShadow_4728_13490"/>
</filter>
<filter id="filter1_i_4728_13490" x="42.4208" y="23.5" width="82.5995" height="128.163" filterUnits="userSpaceOnUse" color-interpolation-filters="sRGB">
<feFlood flood-opacity="0" result="BackgroundImageFix"/>
<feBlend mode="normal" in="SourceGraphic" in2="BackgroundImageFix" result="shape"/>
<feColorMatrix in="SourceAlpha" type="matrix" values="0 0 0 0 0 0 0 0 0 0 0 0 0 0 0 0 0 0 127 0" result="hardAlpha"/>
<feOffset dy="0.75"/>
<feGaussianBlur stdDeviation="0.375"/>
<feComposite in2="hardAlpha" operator="arithmetic" k2="-1" k3="1"/>
<feColorMatrix type="matrix" values="0 0 0 0 0 0 0 0 0 0 0 0 0 0 0 0 0 0 0.25 0"/>
<feBlend mode="normal" in2="shape" result="effect1_innerShadow_4728_13490"/>
</filter>
<linearGradient id="paint0_linear_4728_13490" x1="93.5" y1="89" x2="93.5" y2="92" gradientUnits="userSpaceOnUse">
<stop stop-color="#727A82"/>
<stop offset="1" stop-color="#9EA4AA"/>
</linearGradient>
<linearGradient id="paint1_linear_4728_13490" x1="165.5" y1="107" x2="165.5" y2="110" gradientUnits="userSpaceOnUse">
<stop stop-color="#727A82"/>
<stop offset="1" stop-color="#9EA4AA"/>
</linearGradient>
<linearGradient id="paint2_linear_4728_13490" x1="128.5" y1="108" x2="128.5" y2="111" gradientUnits="userSpaceOnUse">
<stop stop-color="#727A82"/>
<stop offset="1" stop-color="#9EA4AA"/>
</linearGradient>
<linearGradient id="paint3_linear_4728_13490" x1="155.5" y1="77" x2="155.5" y2="80" gradientUnits="userSpaceOnUse">
<stop stop-color="#727A82"/>
<stop offset="1" stop-color="#9EA4AA"/>
</linearGradient>
<linearGradient id="paint4_linear_4728_13490" x1="43.1708" y1="87.2067" x2="95.6558" y2="112.31" gradientUnits="userSpaceOnUse">
<stop stop-color="#FFCC3F"/>
<stop offset="0.735" stop-color="#181818"/>
</linearGradient>
<linearGradient id="paint5_linear_4728_13490" x1="125.205" y1="42.9667" x2="147.84" y2="80.7914" gradientUnits="userSpaceOnUse">
<stop stop-color="#FFCC3F"/>
<stop offset="1" stop-color="#AD0A1E"/>
</linearGradient>
<radialGradient id="paint6_angular_4728_13490" cx="0" cy="0" r="1" gradientUnits="userSpaceOnUse" gradientTransform="translate(134.765 77.6275) rotate(-90) scale(5.4902 3.87545)">
<stop offset="0.166454" stop-color="#F2F6FA"/>
<stop offset="0.499956" stop-color="#D2D5D9"/>
<stop offset="0.656493" stop-color="#F2F6FA"/>
<stop offset="1" stop-color="#D2D5D9"/>
</radialGradient>
<linearGradient id="paint7_linear_4728_13490" x1="134.765" y1="42.6489" x2="134.765" y2="97.6004" gradientUnits="userSpaceOnUse">
<stop stop-color="white"/>
<stop offset="1" stop-color="white" stop-opacity="0"/>
</linearGradient>
<linearGradient id="paint8_linear_4728_13490" x1="134.765" y1="42.6489" x2="134.765" y2="70.1247" gradientUnits="userSpaceOnUse">
<stop/>
<stop offset="1" stop-opacity="0.24"/>
</linearGradient>
<linearGradient id="paint9_linear_4728_13490" x1="140.382" y1="37.4032" x2="140.382" y2="93.0002" gradientUnits="userSpaceOnUse">
<stop stop-opacity="0.24"/>
<stop offset="1"/>
</linearGradient>
<linearGradient id="paint10_linear_4728_13490" x1="121.11" y1="43.2332" x2="124.859" y2="47.055" gradientUnits="userSpaceOnUse">
<stop stop-color="white"/>
<stop offset="1" stop-color="white" stop-opacity="0"/>
</linearGradient>
<clipPath id="clip0_4728_13490">
<rect x="42" y="23.25" width="186" height="128" rx="18" fill="white"/>
</clipPath>
<clipPath id="clip1_4728_13490">
<rect width="39.5294" height="56" fill="white" transform="translate(115 37)"/>
</clipPath>
</defs>
</svg>
